<svg xmlns="http://www.w3.org/2000/svg" width="32" height="32" viewBox="-20 -20 40 40">
  <!-- petals -->
  <ellipse cx="0" cy="-11" rx="5.5" ry="9" fill="#f9a8d4" transform="rotate(0)"/>
  <ellipse cx="0" cy="-11" rx="5.5" ry="9" fill="#f9a8d4" transform="rotate(72)"/>
  <ellipse cx="0" cy="-11" rx="5.5" ry="9" fill="#f9a8d4" transform="rotate(144)"/>
  <ellipse cx="0" cy="-11" rx="5.5" ry="9" fill="#f9a8d4" transform="rotate(216)"/>
  <ellipse cx="0" cy="-11" rx="5.5" ry="9" fill="#f9a8d4" transform="rotate(288)"/>
  <!-- petal highlights -->
  <ellipse cx="0" cy="-11" rx="2.5" ry="5" fill="#fce7f3" transform="rotate(0)"/>
  <ellipse cx="0" cy="-11" rx="2.5" ry="5" fill="#fce7f3" transform="rotate(72)"/>
  <ellipse cx="0" cy="-11" rx="2.5" ry="5" fill="#fce7f3" transform="rotate(144)"/>
  <ellipse cx="0" cy="-11" rx="2.5" ry="5" fill="#fce7f3" transform="rotate(216)"/>
  <ellipse cx="0" cy="-11" rx="2.5" ry="5" fill="#fce7f3" transform="rotate(288)"/>
  <!-- centre -->
  <circle cx="0" cy="0" r="5" fill="#fef08a"/>
  <circle cx="0" cy="0" r="2.5" fill="#f59e0b"/>
  <!-- stamens -->
  <line x1="0" y1="-2" x2="0" y2="-6" stroke="#f472b6" stroke-width="1.2" stroke-linecap="round"/>
  <line x1="0" y1="-2" x2="3.8" y2="-4.7" stroke="#f472b6" stroke-width="1.2" stroke-linecap="round"/>
  <line x1="0" y1="-2" x2="-3.8" y2="-4.7" stroke="#f472b6" stroke-width="1.2" stroke-linecap="round"/>
  <circle cx="0" cy="-6.5" r="1" fill="#f472b6"/>
  <circle cx="4.3" cy="-5.2" r="1" fill="#f472b6"/>
  <circle cx="-4.3" cy="-5.2" r="1" fill="#f472b6"/>
</svg>
